<?xml version="1.0" encoding="utf-8"?>
<!-- Generator: Adobe Illustrator 18.1.1, SVG Export Plug-In . SVG Version: 6.00 Build 0)  -->
<svg version="1.1" id="Layer_1" focusable="false" xmlns="http://www.w3.org/2000/svg" xmlns:xlink="http://www.w3.org/1999/xlink"
	 x="0px" y="0px" viewBox="0 0 612 792" enable-background="new 0 0 612 792" xml:space="preserve">
<path fill="#FFFFFF" d="M306,180C137,180,0,317,0,486s137,306,306,306s306-137,306-306S475,180,306,180z M306,298.5
	c60,0,108.6,48.6,108.6,108.6S366,515.6,306,515.6S197.4,467,197.4,407S246,298.5,306,298.5z M306,722.9
	c-72.4,0-137.3-32.8-180.8-84.1c23.2-43.7,68.6-73.8,121.5-73.8c3,0,5.9,0.5,8.8,1.4c16,5.2,32.8,8.5,50.5,8.5s34.5-3.3,50.5-8.5
	c2.8-0.9,5.8-1.4,8.8-1.4c52.9,0,98.3,30.1,121.5,73.8C443.3,690.1,378.4,722.9,306,722.9z"/>
</svg>
